<?xml version="1.0" standalone="no"?>
<!DOCTYPE svg PUBLIC "-//W3C//DTD SVG 20010904//EN"
 "http://www.w3.org/TR/2001/REC-SVG-20010904/DTD/svg10.dtd">
<svg version="1.0" xmlns="http://www.w3.org/2000/svg"
 width="500.000000pt" height="500.000000pt" viewBox="0 0 500.000000 500.000000"
 preserveAspectRatio="xMidYMid meet">

<g transform="translate(0.000000,500.000000) scale(0.100000,-0.100000)"
fill="#000000" stroke="none">
<path d="M0 2500 l0 -2500 2500 0 2500 0 0 2500 0 2500 -2500 0 -2500 0 0
-2500z m3270 775 c0 -355 -3 -645 -7 -645 -5 0 -7 33 -6 72 l2 73 -147 138
-147 139 -3 -43 c-3 -34 2 -47 23 -69 30 -32 26 -57 -6 -40 -18 10 -19 6 -19
-135 l0 -145 143 0 c98 0 147 -4 155 -12 7 -7 11 -39 10 -83 l-2 -70 -5 75 -6
75 -650 5 c-615 5 -626 5 -212 8 l437 2 0 213 0 212 -185 175 c-102 96 -190
177 -195 178 -6 2 -159 -143 -340 -323 -224 -222 -335 -325 -345 -321 -13 5
-15 -19 -15 -179 0 -117 4 -185 10 -185 6 0 10 -103 10 -290 l0 -290 -130 0
-130 0 2 288 3 287 113 3 112 3 0 176 0 177 -30 -29 c-16 -16 -30 -24 -30 -19
0 6 14 23 30 39 27 26 30 35 30 89 l0 61 -145 -145 c-79 -79 -147 -142 -150
-139 -3 4 62 72 145 153 l150 146 0 344 c0 219 4 347 10 351 15 9 12 25 -5 25
-8 0 -15 -5 -15 -12 0 -6 -3 -8 -6 -5 -4 4 -2 12 4 20 6 7 13 44 15 82 l3 70
2 -72 c1 -46 6 -73 15 -76 10 -3 10 -9 0 -26 -10 -15 -13 -106 -13 -358 l0
-338 408 408 c224 224 411 407 417 407 5 0 -17 -27 -50 -60 l-59 -60 29 -30
29 -30 153 152 c84 84 159 154 166 156 6 2 -61 -68 -150 -155 l-163 -159 150
-149 150 -150 0 188 c0 171 1 187 18 187 16 0 17 -15 14 -203 l-3 -203 31 -29
30 -29 0 142 c0 114 3 142 14 142 11 0 14 -32 18 -155 l4 -156 152 -152 152
-152 0 553 c0 303 2 552 5 552 3 0 5 -290 5 -645z m-910 -110 c0 -25 0 -25
100 -25 84 0 101 3 110 18 10 16 10 16 20 0 6 -10 18 -18 25 -18 22 0 18 -27
-4 -33 -16 -4 -18 -15 -19 -101 0 -88 2 -96 19 -96 25 0 24 -16 -1 -23 -16 -4
-20 -14 -20 -51 0 -61 -18 -59 -22 2 l-3 47 -102 3 c-98 3 -103 2 -103 -18 0
-26 -16 -26 -23 0 -3 12 -14 20 -26 20 -12 0 -21 5 -21 10 0 6 11 10 25 10 23
0 25 4 25 40 l0 40 -40 0 c-54 0 -56 27 -2 32 36 3 37 4 37 43 0 34 -3 40 -22
43 -13 2 -23 10 -23 17 0 7 10 15 23 17 14 2 23 11 25 26 5 30 22 28 22 -3z
m995 -547 l60 -3 -68 -5 c-62 -5 -67 -4 -67 15 0 13 3 16 8 8 4 -6 34 -13 67
-15z m-2195 -253 c0 -22 -4 -25 -35 -25 l-35 0 0 -265 0 -265 -45 0 -45 0 0
265 0 265 -35 0 c-27 0 -35 4 -35 18 0 10 3 22 7 25 3 4 55 7 115 7 l108 0 0
-25z m210 -265 l0 -290 -45 0 -45 0 0 290 0 290 45 0 45 0 0 -290z m1090 100
l0 -190 -80 0 -80 0 0 -100 0 -100 -45 0 -45 0 0 290 0 290 125 0 125 0 0
-190z m400 -100 l0 -290 -45 0 -45 0 0 100 0 100 -35 0 -35 0 0 -100 0 -100
-50 0 -50 0 0 283 c0 156 3 287 7 290 3 4 62 7 130 7 l123 0 0 -290z m230 25
l0 -265 35 0 35 0 0 265 0 265 45 0 45 0 0 -290 0 -290 -125 0 -125 0 0 290 0
290 45 0 45 0 0 -265z m400 0 l0 -265 30 0 c25 0 30 -4 30 -25 0 -25 -1 -25
-80 -25 l-80 0 0 283 c0 156 3 287 7 290 3 4 26 7 50 7 l43 0 0 -265z m440
-25 l0 -290 -125 0 -125 0 0 290 0 290 125 0 125 0 0 -290z m-2562 -419 c8 -5
12 -21 10 -37 -3 -25 -9 -30 -45 -38 -31 -7 -43 -15 -43 -28 0 -10 -4 -18 -10
-18 -6 0 -10 28 -10 65 l0 65 43 0 c23 0 48 -4 55 -9z m162 -1 c0 -5 -20 -10
-45 -10 -38 0 -45 -3 -45 -20 0 -16 7 -20 38 -22 l37 -1 -38 -4 c-33 -4 -38
-7 -35 -26 2 -18 12 -23 48 -28 l45 -6 -57 -1 -58 -2 0 65 0 65 55 0 c30 0 55
-4 55 -10z m137 2 c24 -15 32 -58 19 -102 -8 -26 -16 -39 -20 -32 -4 7 -20 12
-36 12 -38 0 -60 24 -60 65 0 18 7 41 16 49 16 17 61 21 81 8z m105 -103 c40
-26 68 0 68 63 0 26 5 48 10 48 17 0 12 -97 -6 -114 -18 -19 -75 -21 -92 -4
-7 7 -11 36 -11 68 l1 55 8 -54 c5 -29 14 -58 22 -62z m228 101 c0 -5 -18 -10
-40 -10 -33 0 -40 -3 -40 -20 0 -16 7 -20 38 -22 l37 -1 -37 -4 c-32 -4 -38
-8 -38 -28 0 -21 5 -24 48 -28 46 -3 46 -3 -10 -5 l-58 -2 0 65 0 65 50 0 c28
0 50 -4 50 -10z m105 -42 l40 -50 3 51 c4 74 22 63 22 -14 0 -80 -11 -82 -65
-13 l-40 50 -3 -51 c-4 -74 -22 -63 -22 14 0 80 11 82 65 13z m209 36 c25 -25
24 -82 -2 -101 -22 -18 -67 -16 -86 3 -9 8 -16 31 -16 49 0 41 22 65 60 65 16
0 36 -7 44 -16z m156 1 c15 -18 7 -19 -19 -3 -10 6 -26 8 -35 5 -28 -11 -17
-33 25 -50 33 -13 40 -20 37 -39 -2 -19 -10 -24 -42 -26 -21 -2 -43 1 -49 7
-17 17 -1 24 21 10 11 -7 27 -9 36 -6 25 10 19 36 -11 43 -37 9 -53 22 -53 44
0 31 68 42 90 15z m217 3 c12 -16 14 -118 3 -118 -5 0 -10 10 -12 23 -2 17
-11 23 -35 25 -30 3 -33 1 -33 -22 0 -14 -4 -26 -10 -26 -6 0 -10 28 -10 65
l0 65 44 0 c24 0 48 -6 53 -12z m163 2 c0 -5 -20 -10 -45 -10 -38 0 -45 -3
-45 -20 0 -16 7 -20 38 -22 l37 -1 -38 -4 c-33 -4 -38 -7 -35 -26 2 -18 12
-23 48 -28 l45 -6 -57 -1 -58 -2 0 65 0 65 55 0 c30 0 55 -4 55 -10z m140 -5
c29 -35 -6 -74 -67 -75 -14 0 -23 -7 -26 -22 -2 -13 -5 7 -6 45 l-1 67 44 0
c26 0 48 -6 56 -15z m142 -50 c15 -36 22 -65 17 -65 -5 0 -12 7 -15 15 -9 22
-70 20 -83 -2 -18 -32 -22 -7 -5 33 9 21 20 49 25 62 15 38 35 24 61 -43z
m155 53 c12 -16 14 -118 3 -118 -5 0 -10 10 -12 23 -2 17 -11 23 -35 25 -30 3
-33 1 -33 -22 0 -14 -4 -26 -10 -26 -6 0 -10 28 -10 65 l0 65 44 0 c24 0 48
-6 53 -12z m165 -5 c22 -20 23 -70 1 -95 -23 -26 -78 -24 -97 4 -33 47 -7 108
46 108 17 0 40 -7 50 -17z m153 6 c10 -16 -4 -24 -17 -11 -15 15 -45 16 -53 2
-10 -16 12 -37 45 -44 59 -11 46 -66 -15 -66 -18 0 -38 7 -45 15 -14 17 0 21
17 4 14 -14 55 -8 61 8 2 8 -16 21 -42 33 -46 19 -56 36 -34 58 15 15 74 16
83 1z"/>
<path d="M2148 3243 c-248 -248 -309 -304 -321 -295 -11 9 -20 5 -46 -22 -29
-30 -32 -38 -29 -89 l3 -56 375 367 c206 201 363 352 347 336 l-27 -30 187
-179 188 -178 3 43 3 43 -183 184 c-100 101 -185 183 -188 183 -3 0 -143 -138
-312 -307z"/>
<path d="M2860 3109 c0 -37 5 -50 30 -74 l30 -29 0 45 c0 37 -5 50 -30 74
l-30 29 0 -45z"/>
<path d="M2860 2810 l0 -190 36 0 37 0 -5 165 c-5 156 -7 167 -28 190 -13 14
-27 25 -32 25 -4 0 -8 -85 -8 -190z"/>
<path d="M1610 2101 l0 -241 35 0 35 0 -2 238 -3 237 -32 3 -33 3 0 -240z"/>
<path d="M2360 3065 l0 -46 103 3 102 3 0 40 0 40 -102 3 -103 3 0 -46z"/>
<path d="M2360 2950 l0 -40 105 0 105 0 0 40 0 40 -105 0 -105 0 0 -40z"/>
<path d="M2302 2203 l3 -138 33 -3 32 -3 0 140 0 141 -35 0 -36 0 3 -137z"/>
<path d="M2700 2200 l0 -141 33 3 32 3 0 135 0 135 -32 3 -33 3 0 -141z"/>
<path d="M3770 2100 l0 -240 35 0 35 0 0 240 0 240 -35 0 -35 0 0 -240z"/>
<path d="M1290 1645 c0 -22 4 -25 34 -25 22 0 36 6 40 16 9 24 -2 34 -40 34
-30 0 -34 -3 -34 -25z"/>
<path d="M1600 1660 c-24 -24 -25 -38 -4 -68 18 -27 45 -28 67 -4 22 24 21 55
-1 75 -24 22 -38 21 -62 -3z"/>
<path d="M2240 1660 c-24 -24 -25 -38 -4 -68 18 -27 45 -28 67 -4 22 24 21 55
-1 75 -24 22 -38 21 -62 -3z"/>
<path d="M2610 1644 c0 -23 3 -25 33 -22 24 2 33 8 35 26 3 19 -1 22 -32 22
-32 0 -36 -3 -36 -26z"/>
<path d="M2900 1644 c0 -23 3 -25 38 -22 30 2 38 7 40 26 3 20 -1 22 -37 22
-37 0 -41 -2 -41 -26z"/>
<path d="M3081 1644 c-14 -31 -10 -37 17 -32 16 3 17 6 7 31 l-11 28 -13 -27z"/>
<path d="M3210 1644 c0 -23 3 -25 33 -22 24 2 33 8 35 26 3 19 -1 22 -32 22
-32 0 -36 -3 -36 -26z"/>
<path d="M3376 1664 c-42 -41 -2 -109 50 -85 31 14 34 75 5 91 -27 14 -37 13
-55 -6z"/>
</g>
</svg>
